<svg xmlns="http://www.w3.org/2000/svg" version="1.1" xmlns:xlink="http://www.w3.org/1999/xlink" xmlns:svgjs="http://svgjs.com/svgjs" width="2000" height="1000" preserveAspectRatio="none" viewBox="0 0 2000 1000"><g mask="url(&quot;#SvgjsMask1014&quot;)" fill="none"><rect width="2000" height="1000" x="0" y="0" fill="#0e2a47"></rect><path d="M168.88927858620704 509.4197555985886L418.4465337535167 522.4984971458786 431.5252753008067 272.94124197856894 181.96802013349702 259.86250043127893z" fill="rgba(28, 83, 142, 0.4)" class="triangle-float2"></path><path d="M1251.4913615266948 18.315773411354705L1209.8729170353984 121.32503823139854 1385.1960365111124 132.24807255832135z" fill="rgba(28, 83, 142, 0.4)" class="triangle-float2"></path><path d="M1285.1579150379039 200.07030593433302L1082.779695144985 312.2503850378768 1397.3379941414476 402.44852582725184z" fill="rgba(28, 83, 142, 0.4)" class="triangle-float1"></path><path d="M1217.5051115601104 660.5810915459375L1199.634526051032 916.142370723301 1455.1958052283956 934.0129562323796 1473.066390737474 678.451677055016z" fill="rgba(28, 83, 142, 0.4)" class="triangle-float3"></path><path d="M1174.244,855.782C1213.936,858.272,1256.857,851.067,1278.954,818.001C1303.209,781.706,1304.534,732.684,1281.132,695.834C1259.085,661.119,1215.357,652.175,1174.244,653.122C1135.134,654.023,1094.415,666.295,1075.559,700.571C1057.207,733.93,1069.632,774.019,1090.06,806.149C1108.793,835.612,1139.399,853.596,1174.244,855.782" fill="rgba(28, 83, 142, 0.4)" class="triangle-float3"></path><path d="M1527.5498762737634 450.052081453709L1793.1838797329842 403.21363965024267 1480.711434470297 184.41807799448827z" fill="rgba(28, 83, 142, 0.4)" class="triangle-float1"></path><path d="M943.2210251256217 925.1093631209394L899.1853038682917 675.3703777404905 649.4463184878427 719.4060989978205 693.4820397451729 969.1450843782694z" fill="rgba(28, 83, 142, 0.4)" class="triangle-float2"></path><path d="M677.717,106.099C709.781,109.012,742.813,92.514,757.258,63.741C770.679,37.008,756.59,6.76,740.128,-18.216C725.687,-40.125,703.952,-57.47,677.717,-56.935C652.265,-56.416,631.581,-38.2,619.567,-15.756C608.269,5.35,609.494,29.647,619.805,51.253C632.078,76.971,649.338,103.521,677.717,106.099" fill="rgba(28, 83, 142, 0.4)" class="triangle-float3"></path><path d="M859.021,265.743C909.035,264.308,944.119,223.816,970.974,181.598C1000.811,134.692,1033.402,80.357,1008.589,30.61C982.017,-22.664,918.526,-44.684,859.021,-42.855C802.749,-41.126,751.124,-10.307,724.572,39.338C699.398,86.408,708.107,142.461,735.362,188.357C761.973,233.168,806.925,267.237,859.021,265.743" fill="rgba(28, 83, 142, 0.4)" class="triangle-float1"></path><path d="M606.2392169231732 670.4709636683672L573.7245858594786 439.11734226326166 374.8855955180677 702.9855947320618z" fill="rgba(28, 83, 142, 0.4)" class="triangle-float3"></path></g><defs><mask id="SvgjsMask1014"><rect width="2000" height="1000" fill="#ffffff"></rect></mask><style>
            @keyframes float1 {
                0%{transform: translate(0, 0)}
                50%{transform: translate(-10px, 0)}
                100%{transform: translate(0, 0)}
            }

            .triangle-float1 {
                animation: float1 5s infinite;
            }

            @keyframes float2 {
                0%{transform: translate(0, 0)}
                50%{transform: translate(-5px, -5px)}
                100%{transform: translate(0, 0)}
            }

            .triangle-float2 {
                animation: float2 4s infinite;
            }

            @keyframes float3 {
                0%{transform: translate(0, 0)}
                50%{transform: translate(0, -10px)}
                100%{transform: translate(0, 0)}
            }

            .triangle-float3 {
                animation: float3 6s infinite;
            }
        </style></defs></svg>